PathFileType	4	(X/Y/Z)	../Python\running\Running08\task.trc
DataRate	CameraRate	NumFrames	NumMarkers	Units	OrigDataRate	OrigDataStartFrame	OrigNumFrames
200.000000	200.000000	4	30	mm	200.000000	0	204
Frame#	Time	C7			RBAK			CLAV			STRN			RASI			RPSI			LASI			PE01			RTH2			RTH3			RTB2			RD5M			RTOE			LTH3			LTB2			LTB3			LHEE			LTOE			LD5M			RTH1			RHEE			LPSI			PE02			RTB3			RTB1			PE03			T10			LTH2			LTH1			LTB1			
		X1	Y1	Z1	X2	Y2	Z2	X3	Y3	Z3	X4	Y4	Z4	X5	Y5	Z5	X6	Y6	Z6	X7	Y7	Z7	X8	Y8	Z8	X9	Y9	Z9	X10	Y10	Z10	X11	Y11	Z11	X12	Y12	Z12	X13	Y13	Z13	X14	Y14	Z14	X15	Y15	Z15	X16	Y16	Z16	X17	Y17	Z17	X18	Y18	Z18	X19	Y19	Z19	X20	Y20	Z20	X21	Y21	Z21	X22	Y22	Z22	X23	Y23	Z23	X24	Y24	Z24	X25	Y25	Z25	X26	Y26	Z26	X27	Y27	Z27	X28	Y28	Z28	X29	Y29	Z29	X30	Y30	Z30	

1	0	-1638.588745117188	1330.93798828125	172.5490875244141	-1671.558227539063	1230.767944335938	288.690643310547	-1526.160034179688	1222.925903320313	148.5072174072266	-1505.140991210938	1024.908569335938	138.2550201416016	-1589.024658203126	835.2604370117192	294.4691772460939	-1764.280761718751	919.3920898437505	217.4006500244142	-1566.604736328126	830.6482543945317	66.14434051513675	-1745.629760742188	948.4358520507817	175.0522766113282	-1744.396972656251	488.3852844238284	282.5281372070314	-1702.234008789063	532.4888916015627	290.6628723144532	-1898.421875000001	270.640838623047	261.0705871582032	-1943.665771484376	22.68052482604981	237.1966400146486	-1905.563354492188	24.0454502105713	186.0680236816407	-1476.321411132813	610.3435668945315	27.57007217407228	-1567.467285156251	271.4494018554689	46.54054641723634	-1519.183715820313	281.3197326660157	53.62991714477542	-1678.630126953126	110.3677673339844	87.76143646240237	-1503.826171875	64.46780395507815	86.43482971191409	-1533.426879882813	65.76489257812503	35.80216598510744	-1738.377197265626	565.030212402344	304.0596618652345	-2065.318115234376	115.5535507202149	171.9580993652344	-1758.786743164063	914.1779785156255	130.7100982666016	-1783.538696289063	896.0563354492192	191.5277557373047	-1891.058471679688	224.3227996826173	241.098602294922	nan	nan	nan	-1775.218017578126	897.8971557617192	141.6294097900391	-1712.258544921876	1044.176635742188	173.9852447509766	-1519.49267578125	547.7407226562502	52.68851089477542	-1528.462158203125	603.4149169921877	27.69650650024415	-1528.58251953125	342.263397216797	43.19009399414064	
2	0.005	-1623.301269531251	1335.468383789063	171.7601776123047	-1654.089599609376	1236.822631835938	289.1221008300782	-1511.38232421875	1228.170532226563	146.5518798828126	-1489.65380859375	1029.75439453125	137.1681671142579	-1572.552368164063	838.221801757813	295.172332763672	-1747.336791992188	923.1149902343755	218.6947784423829	-1549.705932617188	836.8535156250005	67.39477539062503	-1728.284179687501	952.3598632812505	176.739730834961	-1734.953125000001	494.420349121094	281.7380981445314	-1691.664550781251	537.331970214844	289.8846130371095	-1891.712768554688	278.1445617675782	260.8049621582032	-1943.553222656251	22.93922996520997	236.6364288330079	-1906.882812500001	23.12717819213868	186.0022583007813	-1459.333618164063	615.617370605469	29.86765861511232	-1539.645385742188	267.9375000000001	47.39601898193361	-1492.26025390625	280.598846435547	54.75611114501956	-1641.989746093751	103.1952667236329	90.09201812744143	-1466.810791015625	61.38954544067386	88.31275177001956	-1496.340087890625	62.02330017089847	37.45980453491212	-1727.179443359376	570.891052246094	303.4050903320314	-2053.647216796876	124.2642440795899	170.2961883544922	-1741.732299804688	918.854125976563	131.965805053711	-1766.938476562501	900.3466796875005	192.4142303466798	-1883.286743164063	231.4273376464845	241.8173065185548	nan	nan	nan	-1758.391967773438	902.7849731445317	142.5800933837891	-1695.830200195313	1048.58203125	177.2671966552735	-1503.262451171875	552.9294433593752	53.60875320434573	-1511.359619140625	609.0679321289065	29.55015563964845	-1505.187133789063	340.633758544922	43.48622131347658	
3	0.01	-1608.001220703126	1339.75048828125	170.9541168212891	-1636.677368164063	1242.59716796875	289.4762573242189	-1496.585815429688	1233.154541015625	144.6337280273438	-1474.101928710938	1034.463500976563	136.1204986572266	-1556.097900390626	841.0414428710942	295.828826904297	-1730.369384765626	926.8197631835942	219.9581298828126	-1532.855346679688	842.759643554688	68.64727020263675	-1710.953491210938	956.197143554688	178.3721923828126	-1725.249755859376	500.3171386718752	281.0603637695314	-1680.937500000001	542.0911254882815	289.3287658691407	-1884.518066406251	285.4003906250001	260.4806518554689	-1942.754638671876	23.74558067321778	236.0098876953126	-1907.357421875001	22.67944717407227	185.8397064208985	-1442.6513671875	620.511657714844	32.18787002563478	-1512.256225585938	264.6763000488282	48.28918457031253	-1465.851318359375	280.0281066894532	55.80960464477542	-1605.689941406251	96.78627777099615	92.47325134277347	-1430.080078125	58.95046234130862	90.32817840576175	-1459.554565429688	58.73001098632815	39.3570022583008	-1715.813598632813	576.596618652344	302.8139648437501	-2041.846069335938	132.8038787841797	168.8383789062501	-1724.711181640626	923.3796997070317	133.2140045166016	-1750.296142578126	904.5294799804692	193.2898559570314	-1875.175781250001	238.3218841552736	242.5349426269532	-1824.089355468751	295.4404296875001	250.6861419677736	-1741.531860351563	907.5165405273442	143.5187988281251	-1679.462890625001	1052.809448242188	180.3305358886719	-1487.385375976563	557.7874145507815	54.29124832153323	-1494.565063476563	614.3936767578127	31.28685188293458	-1482.20166015625	339.0005187988282	43.81959152221681	
4	0.015	-1592.688720703126	1343.784301757813	170.1309509277344	-1619.321899414063	1248.090942382813	289.7532653808595	-1481.770385742188	1237.877319335938	142.7528076171876	-1458.485717773438	1039.035766601563	135.1120910644532	-1539.661132812501	843.719604492188	296.4387512207032	-1713.378906250001	930.505249023438	221.1906738281251	-1516.053466796875	848.3661499023442	69.90146636962893	-1693.638671875001	959.9472045898442	179.9495086669922	-1715.283325195313	506.070983886719	280.4939270019532	-1670.050292968751	546.762634277344	288.994598388672	-1876.837890625001	292.4072570800782	260.0981750488282	-1941.267822265626	25.10119819641115	235.3181610107423	-1906.984375000001	22.70444679260255	185.5816192626954	-1426.279052734375	625.0270996093752	34.52145004272462	-1485.302001953125	261.6665954589845	49.21976470947268	-1439.958129882813	279.6080017089845	56.79009246826175	-1569.736694335938	91.14045715332034	94.90200805664065	-1393.639038085938	57.15554809570315	92.48284149169925	-1423.074951171875	55.88766098022464	41.49428939819337	-1704.277709960938	582.143249511719	302.2860717773439	-2029.924926757813	141.1724090576172	167.5843353271485	-1707.723632812501	927.7540893554692	134.4544830322266	-1733.612426757813	908.603881835938	194.1545257568361	-1866.726684570313	245.0048370361329	243.2482147216798	-1816.532958984376	303.5491333007814	251.5451965332032	-1724.638549804688	912.091186523438	144.4454498291016	-1663.156616210938	1056.8583984375	183.175277709961	-1471.858642578125	562.3134765625002	54.73838806152347	-1478.078491210938	619.389831542969	32.90434646606447	-1459.626708984375	337.3650512695314	44.19033432006837	
